<?xml version="1.0" standalone="no"?><!DOCTYPE svg PUBLIC "-//W3C//DTD SVG 1.1//EN" "http://www.w3.org/Graphics/SVG/1.1/DTD/svg11.dtd"><svg t="1641826874538" class="icon" viewBox="0 0 1024 1024" version="1.1" xmlns="http://www.w3.org/2000/svg" p-id="700" width="16" height="16" xmlns:xlink="http://www.w3.org/1999/xlink"><defs><style type="text/css"></style></defs><path d="M384.1 640l-99.3 63.7L128 895.5l125.7-210.2zM359.1 588.5l-121 6.6L82.2 729.3l147.9-168zM359.1 511l-157.8-21.1-153.1 63.9 162.2-110zM371.7 449.9l-159.5-60.3-91.9-204.9 111.8 174.1zM472.8 191.8l-71.7 124.5 26.8 77.6-60.5-77.4zM376.7 347.1l49.7 68.9-29.2 47.9 10.2-47.6zM476.8 366.8L398.4 521l6.3 119-28.5-122.8z" p-id="701" fill="#36ab60"></path><path d="M481.7 421.7L438 515.3 449.5 640l-39.8-127.5zM547.3 366.8l100.6 150.4L619.4 640l6.3-119z" p-id="702" fill="#36ab60"></path><path d="M542.4 421.7l72 90.8L574.6 640l11.5-124.7zM770.5 685.5l125.7 210.1-156.8-191.7-99.3-63.7zM794.1 561.5l147.9 168-155.9-134.2-121-6.6zM813.8 444L976 554l-153.1-63.9-157.8 21.1zM904 184.9l-92 204.8L652.5 450l139.6-91zM648.7 344.7l-30.8 69.2 10.2 47.7-29.1-47.9zM548.9 191.1l105.4 124.7-60.5 77.4 26.8-77.6z" p-id="703" fill="#36ab60"></path><path d="M601.3 332.4L563.7 372l18.8-41.3-25-33.6zM468.8 296.1l-25 33.6 18.8 41.3-37.7-39.6zM512.3 356.4l39.6 50.4-40.6-23-39.1 23.6zM512 548.1c27.9 0 50.4 22.6 50.4 50.4 0 27.8-22.6 50.4-50.4 50.4s-50.4-22.6-50.4-50.4c0-27.8 22.5-50.4 50.4-50.4zM618.3 650.6c-17.6 9.8-36.3 24-53.9 41.9-25.3 25.7-43.6 54-52.5 78.7-9-24.6-27.3-52.9-52.5-78.5-17.9-18.1-36.7-32.5-54.5-42.3l0.2-0.4c27.8 14.3 65.6 23 107.2 23 41 0 78.3-8.5 106-22.4z" p-id="704" fill="#36ab60"></path><path d="M512 507.3m-29.7 0a29.7 29.7 0 1 0 59.4 0 29.7 29.7 0 1 0-59.4 0Z" p-id="705" fill="#36ab60"></path><path d="M512 448.2m-18 0a18 18 0 1 0 36 0 18 18 0 1 0-36 0Z" p-id="706" fill="#36ab60"></path></svg>